<svg width="24" height="24" viewBox="0 0 24 24" fill="none" xmlns="http://www.w3.org/2000/svg">
<path d="M12 2C10.0222 2 8.08879 2.58649 6.4443 3.6853C4.79981 4.78412 3.51809 6.3459 2.76121 8.17317C2.00433 10.0004 1.8063 12.0111 2.19215 13.9509C2.578 15.8907 3.53041 17.6725 4.92894 19.0711C6.32746 20.4696 8.10929 21.422 10.0491 21.8079C11.9889 22.1937 13.9996 21.9957 15.8268 21.2388C17.6541 20.4819 19.2159 19.2002 20.3147 17.5557C21.4135 15.9112 22 13.9778 22 12C22 10.6868 21.7413 9.38642 21.2388 8.17317C20.7363 6.95991 19.9997 5.85752 19.0711 4.92893C18.1425 4.00035 17.0401 3.26375 15.8268 2.7612C14.6136 2.25866 13.3132 2 12 2ZM17.28 9.62L11.2 15.71C11.1066 15.8027 10.9957 15.876 10.8739 15.9258C10.7521 15.9755 10.6216 16.0008 10.49 16C10.3584 16.0008 10.2279 15.9755 10.1061 15.9258C9.98426 15.876 9.87344 15.8027 9.78 15.71L5.87 11.79C5.70618 11.5987 5.62057 11.3526 5.63029 11.1009C5.64001 10.8493 5.74435 10.6105 5.92244 10.4324C6.10054 10.2543 6.33927 10.15 6.59095 10.1403C6.84263 10.1306 7.0887 10.2162 7.28 10.38L10.49 13.59L15.87 8.21C16.0613 8.04617 16.3074 7.96057 16.5591 7.97029C16.8107 7.98001 17.0495 8.08434 17.2276 8.26244C17.4057 8.44053 17.51 8.67927 17.5197 8.93095C17.5294 9.18262 17.4438 9.4287 17.28 9.62Z" fill="black"/>
</svg>
