<svg width="24" height="24" viewBox="0 0 24 24" fill="none" xmlns="http://www.w3.org/2000/svg">
<path d="M15.6098 13.4053L9.07956 19.9492C8.99972 20.0191 8.91939 20.079 8.82956 20.1289L8.72995 20.1787C8.63995 20.2287 8.53991 20.2593 8.43991 20.2793L4.3696 21.0488L3.71042 21.71C3.51054 21.8999 3.26029 21.9999 3.00046 22C2.74046 22 2.48952 21.9101 2.28952 21.71C1.89965 21.3198 1.89973 20.689 2.28952 20.2988L2.97019 19.6182L3.73972 15.5664C3.75972 15.4664 3.79033 15.3761 3.8403 15.2861C3.88049 15.2059 3.9999 15.0163 4.0698 14.9463L10.6098 8.40332L15.6098 13.4053Z" fill="black"/>
<path d="M18.4497 2C19.3897 2 20.2904 2.38045 20.9604 3.05078V3.04004C22.3404 4.42071 22.3497 6.65203 20.9897 8.0127L19.1401 9.86426L20.2397 10.9648C20.8296 11.5451 20.8296 12.4947 20.2397 13.085C19.9498 13.3751 19.5601 13.5253 19.1801 13.5254C18.8001 13.5254 18.4096 13.3751 18.1196 13.085L17.0298 11.9951L10.9399 5.8916C10.3501 5.3113 10.35 4.36073 10.9399 3.77051C11.5199 3.18042 12.4701 3.18043 13.06 3.77051L14.1499 4.86133L15.9897 3.02051C16.6396 2.36026 17.5198 2.00008 18.4497 2Z" fill="black"/>
</svg>
