<svg width="24" height="24" viewBox="0 0 24 24" fill="none" xmlns="http://www.w3.org/2000/svg">
<path d="M6 21C5.46 21 4.91 20.85 4.43 20.55C3.54 20 3 19.04 3 17.99V6.00002C3 4.96002 3.53 4.00002 4.42 3.45002C5.31 2.90002 6.4 2.85002 7.33 3.31002L19.33 9.25002C20.35 9.76003 20.99 10.78 21 11.93C21 13.07 20.37 14.1 19.35 14.62L7.35 20.67C6.92 20.89 6.46 20.99 6 20.99V21ZM6 5.00002C5.75 5.00002 5.56 5.10002 5.47 5.15002C5.33 5.24002 5 5.50002 5 6.00002V17.99C5 18.49 5.33 18.75 5.48 18.84C5.63 18.93 6 19.11 6.45 18.88L18.45 12.83C18.8 12.66 19 12.32 19 11.93C19 11.54 18.79 11.21 18.44 11.04L6.44 5.11002C6.28 5.03002 6.13 5.00002 6 5.00002Z" fill="black"/>
</svg>
